<?xml version="1.0" encoding="utf-8"?><svg xmlns="http://www.w3.org/2000/svg" xmlns:xlink="http://www.w3.org/1999/xlink"><symbol viewBox="0 0 15.27 24.99" id="arrow" xmlns="http://www.w3.org/2000/svg"><path d="M8.018.043L8.053.01l7.621 7.248-1.598 1.45-5.147-4.824V25H7.143V3.852l-5.18 4.855L.4 7.257 8.003.01l.016.033z"/></symbol><symbol viewBox="0 0 18.95 21.74" id="basket" xmlns="http://www.w3.org/2000/svg"><path fill-rule="evenodd" clip-rule="evenodd" d="M18.947 6.859H0v11.79a4 4 0 004 4h10.947a4 4 0 004-4V6.858zM4 21.149a2.5 2.5 0 01-2.5-2.5V8.358h15.947v10.29a2.5 2.5 0 01-2.5 2.5H4z"/><path d="M6.013 12.06V5.868a3.46 3.46 0 116.921 0v6.192a.75.75 0 001.5 0V5.868a4.96 4.96 0 10-9.92 0v6.192a.75.75 0 001.5 0z"/></symbol><symbol viewBox="0 0 8.72 11.38" id="greed" xmlns="http://www.w3.org/2000/svg"><path d="M5.977 8.797H3.914L3.29 12H2.172l.625-3.203H.93v-1.07H3l.54-2.766H1.522V3.875H3.75l.64-3.25h1.118l-.64 3.25H6.93l.64-3.25h1.125l-.64 3.25h1.593v1.086H7.844l-.54 2.766h1.758v1.07h-1.96L6.477 12H5.352l.625-3.203zm-1.86-1.07H6.18l.539-2.766H4.656l-.539 2.766z"/></symbol></svg>